<svg width="24" height="24" viewBox="0 0 24 24" fill="none" xmlns="http://www.w3.org/2000/svg">
<path d="M3 5.88889C3 5.58206 3.23703 5.33333 3.52941 5.33333H20.4706C20.763 5.33333 21 5.58206 21 5.88889C21 6.19571 20.763 6.44444 20.4706 6.44444H3.52941C3.23703 6.44444 3 6.19571 3 5.88889Z" fill="currentColor"/>
<path d="M3.52941 6.44444C3.23703 6.44444 3 6.19571 3 5.88889C3 5.58206 3.23703 5.33333 3.52941 5.33333H20.4706L20.5771 5.34418C20.8185 5.39588 21 5.62032 21 5.88889C21 6.15746 20.8185 6.3819 20.5771 6.43359L20.4706 6.44444H3.52941Z" fill="currentColor"/>
<path d="M16.7647 20.8889V22H7.23529V20.8889H16.7647ZM17.8235 19.7778V6.44444H6.17647V19.7778C6.17647 20.3914 6.65052 20.8889 7.23529 20.8889V22L7.01919 21.9881C6.02225 21.882 5.23009 21.0507 5.12902 20.0046L5.11765 19.7778V5.33333H18.8824V19.7778C18.8824 20.9285 18.0488 21.8744 16.9808 21.9881L16.7647 22V20.8889C17.3495 20.8889 17.8235 20.3914 17.8235 19.7778Z" fill="currentColor"/>
<path d="M8.82353 8.66667C8.53114 8.66667 8.29412 8.9154 8.29412 9.22222L8.29412 18.1111C8.29412 18.4179 8.53114 18.6667 8.82353 18.6667C9.11592 18.6667 9.35294 18.4179 9.35294 18.1111V9.22222C9.35294 8.9154 9.11592 8.66667 8.82353 8.66667Z" fill="currentColor"/>
<path d="M12 8.66667C12.2924 8.66667 12.5294 8.9154 12.5294 9.22222V18.1111C12.5294 18.4179 12.2924 18.6667 12 18.6667C11.7076 18.6667 11.4706 18.4179 11.4706 18.1111V9.22222C11.4706 8.9154 11.7076 8.66667 12 8.66667Z" fill="currentColor"/>
<path d="M15.1765 8.66667C14.8841 8.66667 14.6471 8.9154 14.6471 9.22222V18.1111C14.6471 18.4179 14.8841 18.6667 15.1765 18.6667C15.4689 18.6667 15.7059 18.4179 15.7059 18.1111V9.22222C15.7059 8.9154 15.4689 8.66667 15.1765 8.66667Z" fill="currentColor"/>
<path d="M8.82353 18.6667C8.53114 18.6667 8.29412 18.4179 8.29412 18.1111H8.82353V18.6667ZM15.7059 18.1111L15.6955 18.2229C15.6463 18.4762 15.4324 18.6667 15.1765 18.6667L15.07 18.6558C14.863 18.6115 14.6996 18.4401 14.6574 18.2229L14.6471 18.1111V9.22222C14.6471 8.9154 14.8841 8.66667 15.1765 8.66667C15.4689 8.66667 15.7059 8.9154 15.7059 9.22222V18.1111ZM12.5294 18.1111C12.5294 18.4179 12.2924 18.6667 12 18.6667L11.8935 18.6558C11.6865 18.6115 11.5232 18.4401 11.4809 18.2229L11.4706 18.1111V9.22222C11.4706 8.9154 11.7076 8.66667 12 8.66667C12.2924 8.66667 12.5294 8.9154 12.5294 9.22222V18.1111ZM9.35294 18.1111L9.3426 18.2229C9.29334 18.4762 9.07946 18.6667 8.82353 18.6667V18.1111H8.29412L8.29412 9.22222C8.29412 8.9154 8.53114 8.66667 8.82353 8.66667C9.11592 8.66667 9.35294 8.9154 9.35294 9.22222V18.1111Z" fill="currentColor"/>
<path d="M9.88235 3.11111V5.33333H14.1176V3.11111H9.88235ZM15.1765 6.44444H8.82353V3.11111C8.82353 2.49746 9.29758 2 9.88235 2H14.1176L14.2262 2.00543C14.76 2.06246 15.1765 2.53591 15.1765 3.11111V6.44444Z" fill="currentColor"/>
</svg>
