<svg width="24" height="24" viewBox="0 0 24 24" fill="none" xmlns="http://www.w3.org/2000/svg">
<path d="M12.6914 4C13.644 4 14.4158 4.7721 14.416 5.72461V6.17188H18.8164C19.1754 6.17188 19.4668 6.46328 19.4668 6.82227C19.4667 7.18118 19.1753 7.47168 18.8164 7.47168H17.6113V17.5996C17.6113 18.8514 16.5965 19.8661 15.3447 19.8662H7.9834C6.73158 19.8662 5.7168 18.8514 5.7168 17.5996V7.47168H4.65039C4.29145 7.47168 4.00008 7.18118 4 6.82227C4 6.46328 4.29141 6.17188 4.65039 6.17188H9.0498V5.72461C9.05002 4.77223 9.82203 4.00021 10.7744 4H12.6914ZM6.91699 17.5996C6.91699 18.1887 7.39433 18.667 7.9834 18.667H15.3447C15.9338 18.6669 16.4111 18.1887 16.4111 17.5996V7.47168H6.91699V17.5996ZM9.23242 9.66699C9.56379 9.66699 9.83301 9.93523 9.83301 10.2666V16.2383C9.83301 16.5697 9.56379 16.8389 9.23242 16.8389C8.90123 16.8387 8.63281 16.5695 8.63281 16.2383V10.2666C8.63281 9.93536 8.90123 9.6672 9.23242 9.66699ZM11.7324 9.66699C12.0638 9.66699 12.333 9.93523 12.333 10.2666V16.2383C12.333 16.5697 12.0638 16.8389 11.7324 16.8389C11.4012 16.8387 11.1328 16.5695 11.1328 16.2383V10.2666C11.1328 9.93536 11.4012 9.6672 11.7324 9.66699ZM14.2324 9.66699C14.5638 9.66699 14.833 9.93523 14.833 10.2666V16.2383C14.833 16.5697 14.5638 16.8389 14.2324 16.8389C13.9012 16.8387 13.6328 16.5695 13.6328 16.2383V10.2666C13.6328 9.93536 13.9012 9.6672 14.2324 9.66699ZM10.7744 5.2002C10.4848 5.20041 10.2502 5.43497 10.25 5.72461V6.17188H13.2168V5.72461C13.2166 5.43484 12.9812 5.2002 12.6914 5.2002H10.7744Z" fill="#555555"/>
</svg>
