<svg width="19" height="24" viewBox="0 0 19 24" fill="none" xmlns="http://www.w3.org/2000/svg">
<g opacity="0.9">
<path d="M1.55116 11.9242C1.55114 11.6387 1.43948 11.3648 1.24034 11.1617L0.593901 10.5016C-0.000961199 9.89482 -0.148406 8.97491 0.226499 8.21016L1.37754 5.86094C1.8031 4.99286 2.78464 4.55698 3.70752 4.82578L4.4462 5.04063C4.73539 5.1249 5.04568 5.09552 5.31432 4.95859L5.64994 4.7875C5.9381 4.64054 6.15457 4.3821 6.24988 4.07109L6.45296 3.41016C6.70977 2.57197 7.47852 2 8.34887 2H10.8618L11.0238 2.00625C11.8264 2.07207 12.5169 2.62431 12.7577 3.41016L12.9941 4.18125C13.0742 4.4428 13.241 4.66879 13.4661 4.82188L13.5072 4.85C13.7997 5.04887 14.1651 5.10659 14.504 5.00781L15.1605 4.81641C16.066 4.55261 17.0309 4.96731 17.4688 5.80859L18.6865 8.14844C19.1001 8.94304 18.9384 9.91829 18.2904 10.5336L17.6541 11.1375C17.4191 11.3607 17.286 11.6715 17.2859 11.9969C17.2859 12.3895 17.4792 12.7569 17.8021 12.9766L18.1253 13.1969C18.9888 13.784 19.2548 14.9436 18.7346 15.8531L17.4804 18.0469C17.0244 18.8442 16.0873 19.2251 15.2101 18.9695L14.504 18.7633C14.165 18.6645 13.7998 18.723 13.5072 18.9219L13.484 18.9375C13.2507 19.0962 13.0807 19.3332 13.0042 19.6063L12.7414 20.5438C12.5 21.4052 11.7197 22 10.8316 22H8.3791C7.49097 22 6.71068 21.4052 6.46923 20.5438L6.23825 19.718C6.14778 19.395 5.92684 19.125 5.62979 18.9734L5.31432 18.8125C5.04572 18.6756 4.73534 18.6462 4.4462 18.7305L3.66256 18.9594C2.76512 19.2209 1.80848 18.8155 1.36514 17.9867L0.237351 15.8789C-0.145123 15.1635 -0.0597127 14.2859 0.452831 13.6586L1.30623 12.6141C1.46487 12.4198 1.55116 12.1758 1.55116 11.9242ZM2.34487 11.9242C2.34487 12.3615 2.19433 12.7851 1.91856 13.1227L1.06517 14.1672C0.757637 14.5436 0.706988 15.07 0.9365 15.4992L2.06351 17.607C2.3295 18.1044 2.90391 18.3476 3.44243 18.1906L4.22607 17.9617C4.70816 17.8213 5.22542 17.8701 5.6732 18.0984L5.98789 18.2594C6.48318 18.512 6.8509 18.9624 7.00173 19.5008L7.23272 20.3258C7.37753 20.8427 7.84616 21.2 8.3791 21.2H10.8316C11.3645 21.2 11.8331 20.8427 11.9779 20.3258L12.2399 19.3883C12.3674 18.9333 12.6511 18.5387 13.0398 18.2742L13.0631 18.2586C13.5506 17.9271 14.1592 17.8307 14.7242 17.9953L15.4303 18.2008C15.9565 18.3541 16.5193 18.126 16.7929 17.6477L18.047 15.4539C18.3592 14.9082 18.2 14.2117 17.682 13.8594L17.3587 13.6398C16.817 13.2715 16.4922 12.6556 16.4922 11.9969C16.4923 11.4509 16.7157 10.929 17.1099 10.5547L17.7455 9.95078C18.1343 9.58162 18.2316 8.99707 17.9835 8.52031L16.7658 6.18047C16.503 5.67567 15.924 5.42683 15.3807 5.58516L14.7242 5.77656C14.1592 5.94119 13.5506 5.84478 13.0631 5.51328L13.022 5.48516C12.6468 5.23001 12.3696 4.85309 12.236 4.41719L11.9996 3.64609C11.8552 3.17471 11.4408 2.84355 10.9594 2.80391L10.8618 2.8H8.34887C7.82666 2.8 7.3651 3.14318 7.21101 3.64609L7.00871 4.30703C6.84988 4.82542 6.48835 5.25662 6.00804 5.50156L5.6732 5.67266C5.22539 5.90102 4.70818 5.94987 4.22607 5.80938L3.48739 5.59375C2.93365 5.43244 2.34443 5.69476 2.08909 6.21563L0.93805 8.56406C0.713099 9.02293 0.801242 9.57579 1.15818 9.93984L1.8054 10.5992C2.15129 10.9521 2.34485 11.4282 2.34487 11.9242Z" fill="#747474"/>
<path d="M12.6667 12C12.6667 10.2327 11.2489 8.8 9.5 8.8C7.7511 8.8 6.33333 10.2327 6.33333 12C6.33333 13.7673 7.7511 15.2 9.5 15.2V16C7.31387 16 5.54167 14.2091 5.54167 12C5.54167 9.79086 7.31387 8 9.5 8C11.6861 8 13.4583 9.79086 13.4583 12C13.4583 14.2091 11.6861 16 9.5 16V15.2C11.2489 15.2 12.6667 13.7673 12.6667 12Z" fill="#747474"/>
</g>
</svg>
