<svg width="24" height="24" viewBox="0 0 24 24" fill="none" xmlns="http://www.w3.org/2000/svg">
<circle cx="12" cy="12" r="3.45" stroke="#747474" stroke-width="1.1"/>
<path d="M13.0376 2.5H10.9624C10.3173 2.5 9.74443 2.9125 9.53985 3.52434L9.3521 4.08585C9.04592 5.00156 8.12924 5.56779 7.17334 5.43165L6.1861 5.29105C5.54782 5.20015 4.92285 5.52729 4.6338 6.10359L3.43158 8.50062C3.16861 9.02494 3.23538 9.65443 3.6025 10.1119L4.11315 10.7483C4.70002 11.4796 4.70002 12.5204 4.11315 13.2517L3.64002 13.8413C3.25393 14.3225 3.20177 14.9909 3.50854 15.5261L4.61181 17.4508C4.91723 17.9837 5.51663 18.2765 6.12467 18.1899L7.09889 18.0512C8.08744 17.9104 9.02837 18.5203 9.30347 19.4802L9.5709 20.4133C9.75528 21.0566 10.3436 21.5 11.0128 21.5H13.1298C13.7292 21.5 14.2711 21.1431 14.5078 20.5924L14.9806 19.4927C15.3908 18.5386 16.4631 18.0572 17.4487 18.3847L17.5927 18.4325C18.3246 18.6758 19.1217 18.3243 19.4357 17.6199L20.5793 15.0548C20.8326 14.4865 20.7089 13.8209 20.2683 13.3817L20.154 13.2677C19.4306 12.5466 19.3669 11.3962 20.0062 10.5996L20.3975 10.1119C20.7646 9.65443 20.8314 9.02494 20.5684 8.50062L19.3662 6.10359C19.0772 5.52729 18.4522 5.20015 17.8139 5.29105L16.8267 5.43165C15.8708 5.56779 14.9541 5.00156 14.6479 4.08585L14.4602 3.52434C14.2556 2.9125 13.6827 2.5 13.0376 2.5Z" stroke="#747474" stroke-width="1.1"/>
</svg>
