<svg width="249" height="75" viewBox="0 0 249 75" fill="none" xmlns="http://www.w3.org/2000/svg">
<path d="M29.3562 63.3917C32.0852 66.7996 37.4924 65.9294 39.0121 61.8378L55.6366 17.0789C57.3107 12.5717 52.909 8.18469 48.4013 9.86772L3.65336 26.5752C-0.439167 28.1032 -1.29707 33.508 2.12149 36.2259L10.7883 43.1165C12.1356 44.1877 14.0403 44.2034 15.4051 43.1546L36.3816 27.0347C36.9821 26.5732 37.8321 26.6284 38.3679 27.1636C38.9036 27.6988 38.9588 28.548 38.4969 29.1479L22.3658 50.0977C21.3138 51.4639 21.332 53.3713 22.4098 54.7173L29.3562 63.3917Z" fill="#A64EFF"/>
<path d="M93.3408 55L86.0408 41.75H83.9908V55H75.4408V19.9H89.7908C92.5575 19.9 94.9075 20.3833 96.8408 21.35C98.8075 22.3167 100.274 23.65 101.241 25.35C102.207 27.0167 102.691 28.8833 102.691 30.95C102.691 33.2833 102.024 35.3667 100.691 37.2C99.3908 39.0333 97.4575 40.3333 94.8908 41.1L102.991 55H93.3408ZM83.9908 35.7H89.2908C90.8575 35.7 92.0242 35.3167 92.7908 34.55C93.5908 33.7833 93.9908 32.7 93.9908 31.3C93.9908 29.9667 93.5908 28.9167 92.7908 28.15C92.0242 27.3833 90.8575 27 89.2908 27H83.9908V35.7ZM120.758 55.4C118.025 55.4 115.558 54.8167 113.358 53.65C111.191 52.4833 109.475 50.8167 108.208 48.65C106.975 46.4833 106.358 43.95 106.358 41.05C106.358 38.1833 106.991 35.6667 108.258 33.5C109.525 31.3 111.258 29.6167 113.458 28.45C115.658 27.2833 118.125 26.7 120.858 26.7C123.591 26.7 126.058 27.2833 128.258 28.45C130.458 29.6167 132.191 31.3 133.458 33.5C134.725 35.6667 135.358 38.1833 135.358 41.05C135.358 43.9167 134.708 46.45 133.408 48.65C132.141 50.8167 130.391 52.4833 128.158 53.65C125.958 54.8167 123.491 55.4 120.758 55.4ZM120.758 48C122.391 48 123.775 47.4 124.908 46.2C126.075 45 126.658 43.2833 126.658 41.05C126.658 38.8167 126.091 37.1 124.958 35.9C123.858 34.7 122.491 34.1 120.858 34.1C119.191 34.1 117.808 34.7 116.708 35.9C115.608 37.0667 115.058 38.7833 115.058 41.05C115.058 43.2833 115.591 45 116.658 46.2C117.758 47.4 119.125 48 120.758 48ZM148.444 18V55H139.894V18H148.444ZM163.19 18V55H154.64V18H163.19ZM173.686 24.2C172.186 24.2 170.953 23.7667 169.986 22.9C169.053 22 168.586 20.9 168.586 19.6C168.586 18.2667 169.053 17.1667 169.986 16.3C170.953 15.4 172.186 14.95 173.686 14.95C175.153 14.95 176.353 15.4 177.286 16.3C178.253 17.1667 178.736 18.2667 178.736 19.6C178.736 20.9 178.253 22 177.286 22.9C176.353 23.7667 175.153 24.2 173.686 24.2ZM177.936 27.1V55H169.386V27.1H177.936ZM201.132 26.8C204.399 26.8 206.999 27.8667 208.932 30C210.899 32.1 211.882 35 211.882 38.7V55H203.382V39.85C203.382 37.9833 202.899 36.5333 201.932 35.5C200.966 34.4667 199.666 33.95 198.032 33.95C196.399 33.95 195.099 34.4667 194.132 35.5C193.166 36.5333 192.682 37.9833 192.682 39.85V55H184.132V27.1H192.682V30.8C193.549 29.5667 194.716 28.6 196.182 27.9C197.649 27.1667 199.299 26.8 201.132 26.8ZM228.424 26.7C230.39 26.7 232.107 27.1 233.574 27.9C235.074 28.7 236.224 29.75 237.024 31.05V27.1H245.574V54.95C245.574 57.5167 245.057 59.8333 244.024 61.9C243.024 64 241.474 65.6667 239.374 66.9C237.307 68.1333 234.724 68.75 231.624 68.75C227.49 68.75 224.14 67.7667 221.574 65.8C219.007 63.8667 217.54 61.2333 217.174 57.9H225.624C225.89 58.9667 226.524 59.8 227.524 60.4C228.524 61.0333 229.757 61.35 231.224 61.35C232.99 61.35 234.39 60.8333 235.424 59.8C236.49 58.8 237.024 57.1833 237.024 54.95V51C236.19 52.3 235.04 53.3667 233.574 54.2C232.107 55 230.39 55.4 228.424 55.4C226.124 55.4 224.04 54.8167 222.174 53.65C220.307 52.45 218.824 50.7667 217.724 48.6C216.657 46.4 216.124 43.8667 216.124 41C216.124 38.1333 216.657 35.6167 217.724 33.45C218.824 31.2833 220.307 29.6167 222.174 28.45C224.04 27.2833 226.124 26.7 228.424 26.7ZM237.024 41.05C237.024 38.9167 236.424 37.2333 235.224 36C234.057 34.7667 232.624 34.15 230.924 34.15C229.224 34.15 227.774 34.7667 226.574 36C225.407 37.2 224.824 38.8667 224.824 41C224.824 43.1333 225.407 44.8333 226.574 46.1C227.774 47.3333 229.224 47.95 230.924 47.95C232.624 47.95 234.057 47.3333 235.224 46.1C236.424 44.8667 237.024 43.1833 237.024 41.05Z" fill="#555555"/>
</svg>
